<svg width="14" height="14" viewBox="0 0 14 14" fill="none" xmlns="http://www.w3.org/2000/svg">
<path fill-rule="evenodd" clip-rule="evenodd" d="M1.66329 6.18793C1.66329 3.6106 3.75263 1.52126 6.32996 1.52126C8.90729 1.52126 10.9966 3.6106 10.9966 6.18793C10.9966 7.4452 10.4994 8.58635 9.69093 9.42547C9.66808 9.44303 9.64612 9.46227 9.62519 9.4832C9.60427 9.50412 9.58503 9.52608 9.56748 9.54892C8.72835 10.3574 7.58722 10.8546 6.32996 10.8546C3.75263 10.8546 1.66329 8.76526 1.66329 6.18793ZM10.0751 10.8759C9.04862 11.697 7.74662 12.1879 6.32996 12.1879C3.01625 12.1879 0.329956 9.50164 0.329956 6.18793C0.329956 2.87422 3.01625 0.187927 6.32996 0.187927C9.64367 0.187927 12.33 2.87422 12.33 6.18793C12.33 7.60461 11.839 8.90662 11.0179 9.93307L13.468 12.3832C13.7284 12.6435 13.7284 13.0657 13.468 13.326C13.2077 13.5864 12.7855 13.5864 12.5252 13.326L10.0751 10.8759Z" fill="#2D3440"/>
</svg>
